<svg xmlns="http://www.w3.org/2000/svg" viewBox="0 0 512 512" width="512" height="512">
  <rect width="512" height="512" fill="#0d0d0d"/>
  <rect x="48" y="48" width="416" height="10" fill="#c17f24"/>
  <rect x="48" y="100" width="188" height="148" rx="0" fill="#1a1a1a" stroke="#333" stroke-width="2"/>
  <rect x="56" y="110" width="172" height="8" rx="0" fill="#c17f24"/>
  <rect x="56" y="130" width="140" height="6" fill="#444"/>
  <rect x="56" y="146" width="120" height="6" fill="#444"/>
  <rect x="56" y="162" width="130" height="6" fill="#444"/>
  <rect x="56" y="178" width="110" height="6" fill="#444"/>
  <rect x="276" y="100" width="188" height="148" rx="0" fill="#1a1a1a" stroke="#333" stroke-width="2"/>
  <rect x="284" y="110" width="172" height="8" rx="0" fill="#185fa5"/>
  <rect x="284" y="130" width="140" height="6" fill="#444"/>
  <rect x="284" y="146" width="100" height="6" fill="#444"/>
  <rect x="284" y="162" width="130" height="6" fill="#444"/>
  <rect x="48" y="268" width="188" height="148" rx="0" fill="#1a1a1a" stroke="#333" stroke-width="2"/>
  <rect x="56" y="278" width="172" height="8" rx="0" fill="#3b6d11"/>
  <rect x="56" y="298" width="110" height="6" fill="#444"/>
  <rect x="56" y="314" width="150" height="6" fill="#444"/>
  <rect x="56" y="330" width="120" height="6" fill="#444"/>
  <rect x="276" y="268" width="188" height="148" rx="0" fill="#1a1a1a" stroke="#333" stroke-width="2"/>
  <rect x="284" y="278" width="172" height="8" rx="0" fill="#a32d2d"/>
  <rect x="284" y="298" width="130" height="6" fill="#444"/>
  <rect x="284" y="314" width="100" height="6" fill="#444"/>
  <rect x="48" y="450" width="416" height="4" fill="#333"/>
</svg>
